<svg aria-hidden="true" style="position: absolute; width: 0; height: 0; overflow: hidden;" version="1.1" xmlns="http://www.w3.org/2000/svg" xmlns:xlink="http://www.w3.org/1999/xlink">
<defs>
<symbol id="build" viewBox="0 0 24 24">
<title>build</title>
<path d="M22.688 18.984c0.422 0.281 0.422 0.984-0.094 1.406l-2.297 2.297c-0.422 0.422-0.984 0.422-1.406 0l-9.094-9.094c-2.297 0.891-4.969 0.422-6.891-1.5-2.016-2.016-2.531-5.016-1.313-7.406l4.406 4.313 3-3-4.313-4.313c2.391-1.078 5.391-0.703 7.406 1.313 1.922 1.922 2.391 4.594 1.5 6.891z"></path>
</symbol>
<symbol id="check" viewBox="0 0 24 24">
<title>check</title>
<path d="M9 16.172l10.594-10.594 1.406 1.406-12 12-5.578-5.578 1.406-1.406z"></path>
</symbol>
<symbol id="close" viewBox="0 0 24 24">
<title>close</title>
<path d="M18.984 6.422l-5.578 5.578 5.578 5.578-1.406 1.406-5.578-5.578-5.578 5.578-1.406-1.406 5.578-5.578-5.578-5.578 1.406-1.406 5.578 5.578 5.578-5.578z"></path>
</symbol>
<symbol id="copyright" viewBox="0 0 24 24">
<title>copyright</title>
<path d="M12 20.016c4.406 0 8.016-3.609 8.016-8.016s-3.609-8.016-8.016-8.016-8.016 3.609-8.016 8.016 3.609 8.016 8.016 8.016zM12 2.016c5.531 0 9.984 4.453 9.984 9.984s-4.453 9.984-9.984 9.984-9.984-4.453-9.984-9.984 4.453-9.984 9.984-9.984zM11.859 9.141c-1.442 0-1.875 1.276-1.875 2.719v0.281c0 1.442 0.434 2.719 1.875 2.719 0.88 0 1.641-0.537 1.641-1.406h1.781c0 0.915-0.495 1.603-1.031 2.063-0.604 0.518-1.308 0.844-2.391 0.844-2.559 0-3.844-1.691-3.844-4.219v-0.281c0-1.212 0.34-2.318 0.938-3 0.619-0.707 1.61-1.266 2.906-1.266 1.038 0 1.904 0.358 2.438 0.891 0.516 0.516 0.984 1.312 0.984 2.297h-1.781c0-0.234-0.047-0.422-0.141-0.609s-0.188-0.422-0.328-0.563c-0.254-0.254-0.688-0.469-1.172-0.469z"></path>
</symbol>
<symbol id="extension" viewBox="0 0 24 24">
<title>extension</title>
<path d="M20.484 11.016c1.359 0 2.531 1.125 2.531 2.484s-1.172 2.484-2.531 2.484h-1.5v4.031c0 1.078-0.891 1.969-1.969 1.969h-3.797v-1.5c0-1.5-1.219-2.672-2.719-2.672s-2.719 1.172-2.719 2.672v1.5h-3.797c-1.078 0-1.969-0.891-1.969-1.969v-3.797h1.5c1.5 0 2.672-1.219 2.672-2.719s-1.172-2.719-2.672-2.719h-1.5v-3.797c0-1.078 0.891-1.969 1.969-1.969h4.031v-1.5c0-1.359 1.125-2.531 2.484-2.531s2.484 1.172 2.484 2.531v1.5h4.031c1.078 0 1.969 0.891 1.969 1.969v4.031h1.5z"></path>
</symbol>
<symbol id="format_list_bulleted" viewBox="0 0 24 24">
<title>format_list_bulleted</title>
<path d="M6.984 5.016h14.016v1.969h-14.016v-1.969zM6.984 12.984v-1.969h14.016v1.969h-14.016zM6.984 18.984v-1.969h14.016v1.969h-14.016zM3.984 16.5c0.844 0 1.5 0.703 1.5 1.5s-0.703 1.5-1.5 1.5-1.5-0.703-1.5-1.5 0.656-1.5 1.5-1.5zM3.984 4.5c0.844 0 1.5 0.656 1.5 1.5s-0.656 1.5-1.5 1.5-1.5-0.656-1.5-1.5 0.656-1.5 1.5-1.5zM3.984 10.5c0.844 0 1.5 0.656 1.5 1.5s-0.656 1.5-1.5 1.5-1.5-0.656-1.5-1.5 0.656-1.5 1.5-1.5z"></path>
</symbol>
<symbol id="star" viewBox="0 0 24 24">
<title>star</title>
<path d="M12 17.25l-6.188 3.75 1.641-7.031-5.438-4.734 7.172-0.609 2.813-6.609 2.813 6.609 7.172 0.609-5.438 4.734 1.641 7.031z"></path>
</symbol>
<symbol id="keyboard_arrow_down" viewBox="0 0 24 24">
<title>keyboard_arrow_down</title>
<path d="M7.406 7.828l4.594 4.594 4.594-4.594 1.406 1.406-6 6-6-6z"></path>
</symbol>
<symbol id="keyboard_arrow_left" viewBox="0 0 24 24">
<title>keyboard_arrow_left</title>
<path d="M15.422 16.078l-1.406 1.406-6-6 6-6 1.406 1.406-4.594 4.594z"></path>
</symbol>
<symbol id="keyboard_arrow_right" viewBox="0 0 24 24">
<title>keyboard_arrow_right</title>
<path d="M8.578 16.359l4.594-4.594-4.594-4.594 1.406-1.406 6 6-6 6z"></path>
</symbol>
<symbol id="keyboard_arrow_up" viewBox="0 0 24 24">
<title>keyboard_arrow_up</title>
<path d="M7.406 15.422l-1.406-1.406 6-6 6 6-1.406 1.406-4.594-4.594z"></path>
</symbol>
<symbol id="room" viewBox="0 0 24 24">
<title>room</title>
<path d="M12 11.484c1.359 0 2.484-1.125 2.484-2.484s-1.125-2.484-2.484-2.484-2.484 1.125-2.484 2.484 1.125 2.484 2.484 2.484zM12 2.016c3.891 0 6.984 3.094 6.984 6.984 0 5.25-6.984 12.984-6.984 12.984s-6.984-7.734-6.984-12.984c0-3.891 3.094-6.984 6.984-6.984z"></path>
</symbol>
<symbol id="person" viewBox="0 0 24 24">
<title>person</title>
<path d="M12 14.016c2.672 0 8.016 1.313 8.016 3.984v2.016h-16.031v-2.016c0-2.672 5.344-3.984 8.016-3.984zM12 12c-2.203 0-3.984-1.781-3.984-3.984s1.781-4.031 3.984-4.031 3.984 1.828 3.984 4.031-1.781 3.984-3.984 3.984z"></path>
</symbol>
<symbol id="pin_drop" viewBox="0 0 24 24">
<title>pin_drop</title>
<path d="M5.016 20.016h13.969v1.969h-13.969v-1.969zM9.984 8.016c0 1.078 0.938 1.969 2.016 1.969 1.125 0 2.016-0.891 2.016-1.969s-0.938-2.016-2.016-2.016-2.016 0.938-2.016 2.016zM18 8.016c0 4.5-6 10.969-6 10.969s-6-6.469-6-10.969c0-3.328 2.672-6 6-6s6 2.672 6 6z"></path>
</symbol>
<symbol id="warning" viewBox="0 0 24 24">
<title>warning</title>
<path d="M12.984 14.016v-4.031h-1.969v4.031h1.969zM12.984 18v-2.016h-1.969v2.016h1.969zM0.984 21l11.016-18.984 11.016 18.984h-22.031z"></path>
</symbol>
<symbol id="settings" viewBox="0 0 24 24">
<title>settings</title>
<path d="M12 15.516c1.922 0 3.516-1.594 3.516-3.516s-1.594-3.516-3.516-3.516-3.516 1.594-3.516 3.516 1.594 3.516 3.516 3.516zM19.453 12.984l2.109 1.641c0.188 0.141 0.234 0.422 0.094 0.656l-2.016 3.469c-0.141 0.234-0.375 0.281-0.609 0.188l-2.484-0.984c-0.516 0.375-1.078 0.75-1.688 0.984l-0.375 2.625c-0.047 0.234-0.234 0.422-0.469 0.422h-4.031c-0.234 0-0.422-0.188-0.469-0.422l-0.375-2.625c-0.609-0.234-1.172-0.563-1.688-0.984l-2.484 0.984c-0.234 0.094-0.469 0.047-0.609-0.188l-2.016-3.469c-0.141-0.234-0.094-0.516 0.094-0.656l2.109-1.641c-0.047-0.328-0.047-0.656-0.047-0.984s0-0.656 0.047-0.984l-2.109-1.641c-0.188-0.141-0.234-0.422-0.094-0.656l2.016-3.469c0.141-0.234 0.375-0.281 0.609-0.188l2.484 0.984c0.516-0.375 1.078-0.75 1.688-0.984l0.375-2.625c0.047-0.234 0.234-0.422 0.469-0.422h4.031c0.234 0 0.422 0.188 0.469 0.422l0.375 2.625c0.609 0.234 1.172 0.563 1.688 0.984l2.484-0.984c0.234-0.094 0.469-0.047 0.609 0.188l2.016 3.469c0.141 0.234 0.094 0.516-0.094 0.656l-2.109 1.641c0.047 0.328 0.047 0.656 0.047 0.984s0 0.656-0.047 0.984z"></path>
</symbol>
<symbol id="star_border" viewBox="0 0 24 24">
<title>star_border</title>
<path d="M12 15.422l3.75 2.25-0.984-4.266 3.328-2.906-4.406-0.375-1.688-4.031-1.688 4.031-4.406 0.375 3.328 2.906-0.984 4.266zM21.984 9.234l-5.438 4.734 1.641 7.031-6.188-3.75-6.188 3.75 1.641-7.031-5.438-4.734 7.172-0.609 2.813-6.609 2.813 6.609z"></path>
</symbol>
<symbol id="vertical_align_bottom" viewBox="0 0 24 24">
<title>vertical_align_bottom</title>
<path d="M3.984 18.984h16.031v2.016h-16.031v-2.016zM15.984 12.984l-3.984 4.031-3.984-4.031h3v-9.984h1.969v9.984h3z"></path>
</symbol>
<symbol id="vertical_align_top" viewBox="0 0 24 24">
<title>vertical_align_top</title>
<path d="M3.984 3h16.031v2.016h-16.031v-2.016zM8.016 11.016l3.984-4.031 3.984 4.031h-3v9.984h-1.969v-9.984h-3z"></path>
</symbol>
<symbol id="view_comfy" viewBox="0 0 24 24">
<title>view_comfy</title>
<path d="M18 5.016h3.984v3.984h-3.984v-3.984zM18 18.984v-3.984h3.984v3.984h-3.984zM12.984 18.984v-3.984h4.031v3.984h-4.031zM8.016 18.984v-3.984h3.984v3.984h-3.984zM3 18.984v-3.984h3.984v3.984h-3.984zM18 14.016v-4.031h3.984v4.031h-3.984zM12.984 5.016h4.031v3.984h-4.031v-3.984zM8.016 9v-3.984h3.984v3.984h-3.984zM12.984 14.016v-4.031h4.031v4.031h-4.031zM8.016 14.016v-4.031h3.984v4.031h-3.984zM3 14.016v-4.031h3.984v4.031h-3.984zM3 9v-3.984h3.984v3.984h-3.984z"></path>
</symbol>
<symbol id="view_headline" viewBox="0 0 24 24">
<title>view_headline</title>
<path d="M3.984 5.016h16.031v1.969h-16.031v-1.969zM3.984 11.016v-2.016h16.031v2.016h-16.031zM3.984 18.984v-1.969h16.031v1.969h-16.031zM3.984 15v-2.016h16.031v2.016h-16.031z"></path>
</symbol>
</defs>
</svg>
