<svg aria-hidden="true" style="position: absolute; width: 0; height: 0; overflow: hidden;" version="1.1" xmlns="http://www.w3.org/2000/svg" xmlns:xlink="http://www.w3.org/1999/xlink">
<defs>
<symbol id="icon-heart" viewBox="0 0 32 32">
<title>heart</title>
<path d="M29.193 5.265c-3.629-3.596-9.432-3.671-13.191-0.288-3.76-3.383-9.561-3.308-13.192 0.288-3.741 3.704-3.741 9.709 0 13.415 1.069 1.059 11.053 10.941 11.053 10.941 1.183 1.172 3.096 1.172 4.278 0 0 0 10.932-10.822 11.053-10.941 3.742-3.706 3.742-9.711-0.001-13.415zM27.768 17.268l-11.053 10.941c-0.393 0.391-1.034 0.391-1.425 0l-11.053-10.941c-2.95-2.92-2.95-7.671 0-10.591 2.844-2.815 7.416-2.914 10.409-0.222l1.356 1.22 1.355-1.22c2.994-2.692 7.566-2.594 10.41 0.222 2.95 2.919 2.95 7.67 0.001 10.591zM9.253 7.501c0.277 0 0.5 0.224 0.5 0.5s-0.224 0.5-0.5 0.5h-0.001c-1.794 0-3.249 1.455-3.249 3.249v0.001c0 0.276-0.224 0.5-0.5 0.5s-0.5-0.224-0.5-0.5v0c0-2.346 1.901-4.247 4.246-4.249 0.002 0 0.002-0.001 0.004-0.001z"></path>
</symbol>
<symbol id="icon-aboutme" viewBox="0 0 32 32">
<title>aboutme</title>
<path fill="#00a98f" style="fill: var(--color1, #00a98f)" d="M26.048 12.2c-1.831 0-2.844 1.352-3.059 2.821h6.144c-0.167-1.4-1.156-2.82-3.085-2.82zM23.035 17.024c0.313 1.541 1.591 2.627 3.376 2.627 0.967 0 2.36-0.36 3.179-1.219l1.567 1.8c-1.419 1.48-3.537 1.901-4.987 1.901-3.52 0-6.263-2.541-6.263-6.141 0-3.38 2.525-6.16 6.093-6.16 3.447 0 6 2.64 6 6.139v1.021h-8.964v0.031zM14.385 22.131v-7.587c0-1.301-0.58-2.048-1.784-2.048-1.085 0-1.807 0.78-2.289 1.343v8.32h-3.133v-7.6c0-1.301-0.553-2.043-1.757-2.043-1.084 0-1.833 0.781-2.289 1.341v8.32h-3.132v-12.167h3.133v1.533c0.533-0.619 1.736-1.68 3.613-1.68 1.663 0 2.795 0.7 3.303 2.12 0.699-1.016 2-2.12 3.88-2.12 2.267 0 3.587 1.347 3.587 3.949v8.32h-3.137l0.007-0.008z"></path>
</symbol>
</defs>
</svg>
