<!-- Generated by IcoMoon.io -->
<svg version="1.1" xmlns="http://www.w3.org/2000/svg" width="32" height="32" viewBox="0 0 32 32">
<title>aboutme</title>
<path fill="#00a98f" d="M26.048 12.2c-1.831 0-2.844 1.352-3.059 2.821h6.144c-0.167-1.4-1.156-2.82-3.085-2.82zM23.035 17.024c0.313 1.541 1.591 2.627 3.376 2.627 0.967 0 2.36-0.36 3.179-1.219l1.567 1.8c-1.419 1.48-3.537 1.901-4.987 1.901-3.52 0-6.263-2.541-6.263-6.141 0-3.38 2.525-6.16 6.093-6.16 3.447 0 6 2.64 6 6.139v1.021h-8.964v0.031zM14.385 22.131v-7.587c0-1.301-0.58-2.048-1.784-2.048-1.085 0-1.807 0.78-2.289 1.343v8.32h-3.133v-7.6c0-1.301-0.553-2.043-1.757-2.043-1.084 0-1.833 0.781-2.289 1.341v8.32h-3.132v-12.167h3.133v1.533c0.533-0.619 1.736-1.68 3.613-1.68 1.663 0 2.795 0.7 3.303 2.12 0.699-1.016 2-2.12 3.88-2.12 2.267 0 3.587 1.347 3.587 3.949v8.32h-3.137l0.007-0.008z"></path>
</svg>
